<mxfile host="app.diagrams.net" agent="Mozilla/5.0 (X11; Ubuntu; Linux x86_64; rv:135.0) Gecko/20100101 Firefox/135.0" version="25.0.3">
  <diagram name="Page-1" id="211pv4WC7Fwa36eEEbmL">
    <mxGraphModel>
      <root>
        <mxCell id="0" />
        <mxCell id="1" parent="0" />
        <mxCell id="2" value="GCP Organization" style="whiteSpace=wrap;strokeWidth=2;verticalAlign=top;" vertex="1" parent="1">
          <mxGeometry x="8" y="8" width="802" height="659" as="geometry" />
        </mxCell>
        <mxCell id="3" value="Project 1" style="rhombus;strokeWidth=2;whiteSpace=wrap;" vertex="1" parent="2">
          <mxGeometry x="63" y="83" width="115" height="115" as="geometry" />
        </mxCell>
        <mxCell id="4" value="Projects" style="whiteSpace=wrap;strokeWidth=2;" vertex="1" parent="2">
          <mxGeometry x="28" y="46" width="688" height="403" as="geometry" />
        </mxCell>
        <mxCell id="5" value="Cluster 1" style="rhombus;strokeWidth=2;whiteSpace=wrap;" vertex="1" parent="2">
          <mxGeometry x="64" y="297" width="114" height="114" as="geometry" />
        </mxCell>
        <mxCell id="6" value="Project 2" style="rhombus;strokeWidth=2;whiteSpace=wrap;" vertex="1" parent="2">
          <mxGeometry x="228" y="83" width="115" height="115" as="geometry" />
        </mxCell>
        <mxCell id="7" value="Cluster 2" style="rhombus;strokeWidth=2;whiteSpace=wrap;" vertex="1" parent="2">
          <mxGeometry x="229" y="297" width="114" height="114" as="geometry" />
        </mxCell>
        <mxCell id="8" value="Project 3" style="rhombus;strokeWidth=2;whiteSpace=wrap;" vertex="1" parent="2">
          <mxGeometry x="393" y="83" width="115" height="115" as="geometry" />
        </mxCell>
        <mxCell id="9" value="Cluster 3" style="rhombus;strokeWidth=2;whiteSpace=wrap;" vertex="1" parent="2">
          <mxGeometry x="394" y="297" width="114" height="114" as="geometry" />
        </mxCell>
        <mxCell id="10" value="Project 4" style="rhombus;strokeWidth=2;whiteSpace=wrap;" vertex="1" parent="2">
          <mxGeometry x="558" y="83" width="115" height="115" as="geometry" />
        </mxCell>
        <mxCell id="11" value="Cluster 4" style="rhombus;strokeWidth=2;whiteSpace=wrap;" vertex="1" parent="2">
          <mxGeometry x="559" y="297" width="114" height="114" as="geometry" />
        </mxCell>
        <mxCell id="12" value="Storage" style="ellipse;aspect=fixed;strokeWidth=2;whiteSpace=wrap;" vertex="1" parent="2">
          <mxGeometry x="80" y="542" width="69" height="69" as="geometry" />
        </mxCell>
        <mxCell id="13" value="Network" style="ellipse;aspect=fixed;strokeWidth=2;whiteSpace=wrap;" vertex="1" parent="2">
          <mxGeometry x="544" y="539" width="75" height="75" as="geometry" />
        </mxCell>
        <mxCell id="14" value="Organization" style="ellipse;aspect=fixed;strokeWidth=2;whiteSpace=wrap;" vertex="1" parent="2">
          <mxGeometry x="669" y="524" width="106" height="106" as="geometry" />
        </mxCell>
        <mxCell id="15" value="Resources" style="curved=1;startArrow=none;endArrow=block;exitX=0.5;exitY=1;entryX=0.5;entryY=0;" edge="1" parent="2" source="3" target="5">
          <mxGeometry relative="1" as="geometry">
            <Array as="points" />
          </mxGeometry>
        </mxCell>
        <mxCell id="16" value="Resources" style="curved=1;startArrow=none;endArrow=block;exitX=0.5;exitY=1;entryX=0.5;entryY=0;" edge="1" parent="2" source="6" target="7">
          <mxGeometry relative="1" as="geometry">
            <Array as="points" />
          </mxGeometry>
        </mxCell>
        <mxCell id="17" value="Resources" style="curved=1;startArrow=none;endArrow=block;exitX=0.5;exitY=1;entryX=0.5;entryY=0;" edge="1" parent="2" source="8" target="9">
          <mxGeometry relative="1" as="geometry">
            <Array as="points" />
          </mxGeometry>
        </mxCell>
        <mxCell id="18" value="Resources" style="curved=1;startArrow=none;endArrow=block;exitX=0.5;exitY=1;entryX=0.5;entryY=0;" edge="1" parent="2" source="10" target="11">
          <mxGeometry relative="1" as="geometry">
            <Array as="points" />
          </mxGeometry>
        </mxCell>
        <mxCell id="19" value="" style="curved=1;dashed=1;dashPattern=2 3;startArrow=none;endArrow=block;exitX=0.36;exitY=1;entryX=0.39;entryY=0;" edge="1" parent="2" source="5" target="12">
          <mxGeometry relative="1" as="geometry">
            <Array as="points">
              <mxPoint x="94" y="449" />
              <mxPoint x="94" y="486" />
            </Array>
          </mxGeometry>
        </mxCell>
        <mxCell id="20" value="" style="curved=1;dashed=1;dashPattern=2 3;startArrow=none;endArrow=block;exitX=1;exitY=0.67;entryX=0;entryY=0.26;" edge="1" parent="2" source="5" target="13">
          <mxGeometry relative="1" as="geometry">
            <Array as="points">
              <mxPoint x="392" y="449" />
              <mxPoint x="392" y="486" />
            </Array>
          </mxGeometry>
        </mxCell>
        <mxCell id="21" value="" style="curved=1;dashed=1;dashPattern=2 3;startArrow=none;endArrow=block;exitX=0;exitY=0.98;entryX=0.9;entryY=0;" edge="1" parent="2" source="7" target="12">
          <mxGeometry relative="1" as="geometry">
            <Array as="points">
              <mxPoint x="187" y="449" />
              <mxPoint x="187" y="486" />
            </Array>
          </mxGeometry>
        </mxCell>
        <mxCell id="22" value="" style="curved=1;dashed=1;dashPattern=2 3;startArrow=none;endArrow=block;exitX=1;exitY=0.74;entryX=0;entryY=0.03;" edge="1" parent="2" source="7" target="13">
          <mxGeometry relative="1" as="geometry">
            <Array as="points">
              <mxPoint x="484" y="449" />
              <mxPoint x="484" y="486" />
            </Array>
          </mxGeometry>
        </mxCell>
        <mxCell id="23" value="" style="curved=1;dashed=1;dashPattern=2 3;startArrow=none;endArrow=block;exitX=0;exitY=0.78;entryX=1;entryY=0.23;" edge="1" parent="2" source="9" target="12">
          <mxGeometry relative="1" as="geometry">
            <Array as="points">
              <mxPoint x="279" y="449" />
              <mxPoint x="279" y="486" />
            </Array>
          </mxGeometry>
        </mxCell>
        <mxCell id="24" value="" style="curved=1;dashed=1;dashPattern=2 3;startArrow=none;endArrow=block;exitX=1;exitY=0.87;entryX=0.47;entryY=0;" edge="1" parent="2" source="9" target="13">
          <mxGeometry relative="1" as="geometry">
            <Array as="points">
              <mxPoint x="577" y="449" />
              <mxPoint x="577" y="486" />
            </Array>
          </mxGeometry>
        </mxCell>
        <mxCell id="25" value="" style="curved=1;dashed=1;dashPattern=2 3;startArrow=none;endArrow=block;exitX=0;exitY=0.69;entryX=1;entryY=0.33;" edge="1" parent="2" source="11" target="12">
          <mxGeometry relative="1" as="geometry">
            <Array as="points">
              <mxPoint x="372" y="449" />
              <mxPoint x="372" y="486" />
            </Array>
          </mxGeometry>
        </mxCell>
        <mxCell id="26" value="" style="curved=1;dashed=1;dashPattern=2 3;startArrow=none;endArrow=block;exitX=0.78;exitY=1;entryX=0.99;entryY=0;" edge="1" parent="2" source="11" target="13">
          <mxGeometry relative="1" as="geometry">
            <Array as="points">
              <mxPoint x="669" y="449" />
              <mxPoint x="669" y="486" />
            </Array>
          </mxGeometry>
        </mxCell>
      </root>
    </mxGraphModel>
  </diagram>
</mxfile>
